<svg width="23" height="24" viewBox="0 0 23 24" fill="none" xmlns="http://www.w3.org/2000/svg">
<g clip-path="url(#clip0_17_4778)">
<path d="M3.15982 18.3233C2.60199 11.9508 4.75426 8.95375 7.77461 7.17317C11.5538 4.94149 15.3371 4.80187 18.3474 2.2579C20.1661 0.720894 20.5513 2.50183 20.5904 2.79404C21.1537 7.00426 20.0386 11.4572 15.9281 14.5306C11.4445 17.8817 5.49403 15.4959 3.46454 22.301C3.44959 22.3511 3.40994 22.3902 3.35944 22.4037L2.90566 22.5253C2.79745 22.5543 2.69689 22.4589 2.71965 22.3492C3.35067 19.309 4.67721 16.4816 6.66699 13.9776C8.46049 11.7232 10.7925 9.72104 13.5883 7.87423C13.8146 7.72472 13.6099 7.38034 13.3707 7.50818C11.1634 8.68753 9.22802 9.97404 7.55493 11.6287C5.80638 13.3578 4.34371 15.4921 3.15989 18.3233L3.15982 18.3233Z" fill="url(#paint0_linear_17_4778)"/>
</g>
<defs>
<linearGradient id="paint0_linear_17_4778" x1="9.44441" y1="4.32837" x2="13.5556" y2="19.6716" gradientUnits="userSpaceOnUse">
<stop stop-color="#06FFFF"/>
<stop offset="1" stop-color="#2395FE"/>
</linearGradient>
<clipPath id="clip0_17_4778">
<rect width="23" height="23" fill="white" transform="translate(0 0.5)"/>
</clipPath>
</defs>
</svg>
