<svg width="23" height="24" viewBox="0 0 23 24" fill="none" xmlns="http://www.w3.org/2000/svg">
<path d="M18.8922 8.2896L18.6558 8.83171C18.483 9.22859 17.934 9.22859 17.7611 8.83171L17.5248 8.2896C17.1036 7.32299 16.345 6.55339 15.3984 6.13237L14.6703 5.80858C14.2767 5.6335 14.2767 5.06069 14.6703 4.88561L15.3576 4.57992C16.3286 4.14807 17.1009 3.34999 17.5148 2.35054L17.7574 1.76471C17.9266 1.35642 18.4904 1.35642 18.6595 1.76471L18.9021 2.35054C19.3161 3.34999 20.0884 4.14807 21.0593 4.57992L21.7466 4.88561C22.1403 5.06069 22.1403 5.6335 21.7466 5.80858L21.0186 6.13237C20.072 6.55339 19.3134 7.32299 18.8922 8.2896ZM14.3752 21.1413L8.62516 7.72466L6.38209 12.9585H0.958496V11.0418H5.11824L8.62516 2.85903L14.3752 16.2757L16.6182 11.0418H22.0418V12.9585H17.8821L14.3752 21.1413Z" fill="url(#paint0_linear_274_6006)"/>
<defs>
<linearGradient id="paint0_linear_274_6006" x1="11.5002" y1="1.4585" x2="11.5002" y2="21.1413" gradientUnits="userSpaceOnUse">
<stop stop-color="#06FFFF"/>
<stop offset="1" stop-color="#2395FE"/>
</linearGradient>
</defs>
</svg>
