<svg width="23" height="24" viewBox="0 0 23 24" fill="none" xmlns="http://www.w3.org/2000/svg">
<g clip-path="url(#clip0_17_4781)">
<path d="M12 22.5C7.58191 22.5 4 18.694 4 14.0007C4 10.8693 6.66644 6.3696 12 0.5C17.3336 6.37033 20 10.8701 20 14.0007C20 18.694 16.4181 22.5 12 22.5ZM6.13704 15.1755C6.40128 16.3425 6.9364 17.4221 7.69432 18.3172C8.45224 19.2123 9.40923 19.8949 10.4793 20.3037C10.5668 20.3366 10.6597 20.351 10.7525 20.3459C10.8454 20.3409 10.9363 20.3165 11.0202 20.2743C11.1041 20.232 11.1792 20.1727 11.2412 20.0997C11.3032 20.0267 11.3509 19.9415 11.3816 19.849C11.4447 19.6621 11.4352 19.4564 11.355 19.2768C11.2749 19.0973 11.1306 18.9584 10.9537 18.8905C10.1053 18.5661 9.3466 18.0248 8.7456 17.3151C8.14459 16.6054 7.72012 15.7495 7.51026 14.8242C7.48834 14.7291 7.44887 14.6396 7.3941 14.5606C7.33934 14.4816 7.27036 14.4148 7.1911 14.3639C7.11184 14.3131 7.02385 14.2792 6.93216 14.2641C6.84046 14.2491 6.74686 14.2533 6.6567 14.2764C6.56653 14.2995 6.48156 14.3411 6.40665 14.3988C6.33174 14.4566 6.26834 14.5293 6.22009 14.6128C6.17184 14.6964 6.13967 14.7892 6.12542 14.8858C6.11117 14.9825 6.11512 15.0811 6.13704 15.1762V15.1755Z" fill="url(#paint0_linear_17_4781)"/>
</g>
<defs>
<linearGradient id="paint0_linear_17_4781" x1="12" y1="0.5" x2="12" y2="22.5" gradientUnits="userSpaceOnUse">
<stop stop-color="#06FFFF"/>
<stop offset="1" stop-color="#2395FE"/>
</linearGradient>
<clipPath id="clip0_17_4781">
<rect width="23" height="23" fill="white" transform="translate(0 0.5)"/>
</clipPath>
</defs>
</svg>
