<svg width="23" height="24" viewBox="0 0 23 24" fill="none" xmlns="http://www.w3.org/2000/svg">
<path d="M15.3333 2.4165L20.125 7.20817V20.6327C20.125 21.1577 19.6986 21.5832 19.173 21.5832H3.82701C3.30123 21.5832 2.875 21.1468 2.875 20.6327V3.36698C2.875 2.84205 3.30141 2.4165 3.82701 2.4165H15.3333ZM12.9653 14.3443L15.0837 16.4627L16.439 15.1073L14.3206 12.989C15.1888 11.519 14.9914 9.59395 13.7283 8.33092C12.2313 6.83392 9.80423 6.83392 8.30721 8.33092C6.8102 9.82794 6.8102 12.255 8.30721 13.7521C9.57023 15.0151 11.4953 15.2126 12.9653 14.3443ZM12.373 12.3968C11.6246 13.1453 10.411 13.1453 9.66249 12.3968C8.91399 11.6483 8.91399 10.4347 9.66249 9.68622C10.411 8.93771 11.6246 8.93771 12.373 9.68622C13.1216 10.4347 13.1216 11.6483 12.373 12.3968Z" fill="url(#paint0_linear_274_6241)"/>
<defs>
<linearGradient id="paint0_linear_274_6241" x1="11.5" y1="2.4165" x2="11.5" y2="21.5832" gradientUnits="userSpaceOnUse">
<stop stop-color="#06FFFF"/>
<stop offset="1" stop-color="#2395FE"/>
</linearGradient>
</defs>
</svg>
