<svg width="23" height="24" viewBox="0 0 23 24" fill="none" xmlns="http://www.w3.org/2000/svg">
<path d="M6.5 5H15.5L18 9H4.5L6.5 5Z" fill="#09F2FF"/>
<path d="M18.1111 18.2222C18.6444 18.2222 19 18.5778 19 19.1111C19 19.6444 18.6444 20 18.1111 20H3.88889C3.35556 20 3 19.6444 3 19.1111C3 18.5778 3.35556 18.2222 3.88889 18.2222H18.1111ZM18.1111 14.6667C18.6444 14.6667 19 15.0222 19 15.5556C19 16.0889 18.6444 16.4444 18.1111 16.4444H16.3333C15.8 16.4444 15.4444 16.0889 15.4444 15.5556C15.4444 15.0222 15.8 14.6667 16.3333 14.6667H18.1111ZM11.8889 14.6667C12.4222 14.6667 12.7778 15.0222 12.7778 15.5556C12.7778 16.0889 12.4222 16.4444 11.8889 16.4444H10.1111C9.57778 16.4444 9.22222 16.0889 9.22222 15.5556C9.22222 15.0222 9.57778 14.6667 10.1111 14.6667H11.8889ZM5.66667 14.6667C6.2 14.6667 6.55556 15.0222 6.55556 15.5556C6.55556 16.0889 6.2 16.4444 5.66667 16.4444H3.88889C3.35556 16.4444 3 16.0889 3 15.5556C3 15.0222 3.35556 14.6667 3.88889 14.6667H5.66667ZM3.88889 11.1111C4.42222 11.1111 4.77778 11.4667 4.77778 12C4.77778 12.5333 4.42222 12.8889 3.88889 12.8889C3.35556 12.8889 3 12.5333 3 12C3 11.4667 3.35556 11.1111 3.88889 11.1111ZM7.44444 11.1111C7.97778 11.1111 8.33333 11.4667 8.33333 12C8.33333 12.5333 7.97778 12.8889 7.44444 12.8889C6.91111 12.8889 6.55556 12.5333 6.55556 12C6.55556 11.4667 6.91111 11.1111 7.44444 11.1111ZM11 11.1111C11.5333 11.1111 11.8889 11.4667 11.8889 12C11.8889 12.5333 11.5333 12.8889 11 12.8889C10.4667 12.8889 10.1111 12.5333 10.1111 12C10.1111 11.4667 10.4667 11.1111 11 11.1111ZM14.5556 11.1111C15.0889 11.1111 15.4444 11.4667 15.4444 12C15.4444 12.5333 15.0889 12.8889 14.5556 12.8889C14.0222 12.8889 13.6667 12.5333 13.6667 12C13.6667 11.4667 14.0222 11.1111 14.5556 11.1111ZM18.1111 11.1111C18.6444 11.1111 19 11.4667 19 12C19 12.5333 18.6444 12.8889 18.1111 12.8889C17.5778 12.8889 17.2222 12.5333 17.2222 12C17.2222 11.4667 17.5778 11.1111 18.1111 11.1111ZM15.4444 4C15.7111 4 15.9778 4.08889 16.1556 4.35556L18.8222 7.91111C18.9213 8.04317 18.9816 8.20021 18.9964 8.36462C19.0112 8.52903 18.98 8.69432 18.9062 8.84197C18.8323 8.98962 18.7189 9.11379 18.5784 9.20058C18.438 9.28736 18.2762 9.33333 18.1111 9.33333H3.88889C3.72381 9.33333 3.562 9.28736 3.42157 9.20058C3.28115 9.11379 3.16767 8.98962 3.09384 8.84197C3.02002 8.69432 2.98877 8.52903 3.00359 8.36462C3.01842 8.20021 3.07873 8.04317 3.17778 7.91111L5.84444 4.35556C6.02222 4.08889 6.28889 4 6.55556 4H15.4444ZM15 5.77778H7L5.66667 7.55555H16.3333L15 5.77778Z" fill="url(#paint0_linear_13_1950)"/>
<defs>
<linearGradient id="paint0_linear_13_1950" x1="11" y1="4" x2="11" y2="20" gradientUnits="userSpaceOnUse">
<stop stop-color="#06FFFF"/>
<stop offset="1" stop-color="#2395FE"/>
</linearGradient>
</defs>
</svg>
